<?xml version="1.0" encoding="UTF-8"?>
<svg id="Layer_1" xmlns="http://www.w3.org/2000/svg" version="1.1" viewBox="0 0 1280 1024">
  <!-- Generator: Adobe Illustrator 30.2.1, SVG Export Plug-In . SVG Version: 2.1.1 Build 1)  -->
  <defs>
    <style>
      .st0 {
        fill: #f0529c;
      }
    </style>
  </defs>
  <path class="st0" d="M463,651.5v9.3h8.8v-7.5c0-1,.8-1.8,1.8-1.8h7.5v-8.8h-9.3c-4.9,0-8.8,3.9-8.8,8.8h0ZM482.8,632.9c-1,0-1.8-.8-1.8-1.8v-7.5h-8.8v9.3c0,4.9,3.9,8.8,8.8,8.8h9.3v-8.8h-7.5ZM453.3,633.4h-9.3v8.8h7.5c1,0,1.8.8,1.8,1.8v7.5h8.8v-9.3c0-4.9-3.9-8.8-8.8-8.8h0ZM462.5,632.5h-9.3v-8.8h7.5c1,0,1.8-.8,1.8-1.8v-7.5h8.8v9.3c0,4.9-3.9,8.8-8.8,8.8h0Z"/>
  <path class="st0" d="M545.5,656.4l-10.3-42.1h-11.4l-10.3,42.1-9.2-42.1h-7.3l10.2,46.6h12.3l9.9-40.8,9.9,40.8h12.3l10.2-46.6h-7.2l-9.2,42.1h0ZM567.1,660.8h7v-35h-7v35h0ZM566.2,620.6h8.8v-6.3h-8.8v6.3h0ZM581.6,660.8h7v-49h-7v49h0ZM610.9,624.7c-11.3,0-16.3,8.3-16.3,18.6s5,18.6,16.3,18.6,10.6-2.6,12.9-7.1v6h7v-49h-7v20c-2.4-4.6-6.6-7.1-12.9-7.1h0ZM601.6,643.3c0-8.7,2.9-13,10.7-13s11.5,4.1,11.5,13-4.1,13-11.5,13-10.7-4.3-10.7-13h0ZM638.8,660.8h20.2c15.3,0,21.9-10.7,21.9-23.4s-6.6-23.2-21.9-23.2h-20.2v46.6h0ZM646,655v-34.9h11.6c11.5,0,15.8,5.7,15.8,17.4s-4.2,17.6-15.8,17.6h-11.6ZM702.5,661.9c12.3,0,16.2-6.9,16.8-11.7h-6.4c-1,3.6-3.8,6.5-10.2,6.5s-10.5-2.7-11.1-11.5h27.6c.1-.9.1-1.8.1-2.7,0-10-5.7-17.9-16.9-17.9s-17.7,8.3-17.7,18.5,5.2,18.7,17.7,18.7h0ZM691.8,640.2c.8-7.8,4.8-10.3,10.9-10.3s9.7,3.2,10.1,10.3h-20.9ZM737.9,660.8h6.9v-5.6h-10.5v-24h11.2v-5.4h-11.2v-7.9h-3.5l-2.9,7.1-7.3,2.5v3.6h6.6v19.3c0,7,2.1,10.3,10.6,10.3h0ZM755.6,645.8h-7.6c.2,9.5,6.5,16.2,19,16.2s19.1-8.5,19.1-16-7.3-13-13.2-13-3.6.3-4.6.6l15.1-13.5v-5.8h-33.8v5.8h25.3l-17.6,15.1,3.4,4.5c2.5-1.8,4.9-2.9,8.6-2.9,6.1,0,9.2,3.6,9.2,8.9s-4.1,10.4-11.3,10.4-11.5-3.7-11.7-10.3h0ZM792.3,660.8h20.2c15.3,0,21.9-10.7,21.9-23.4s-6.6-23.2-21.9-23.2h-20.2v46.6h0ZM799.5,655v-34.9h11.5c11.6,0,15.8,5.7,15.8,17.4s-4.2,17.6-15.8,17.6h-11.5Z"/>
  <path class="st0" d="M639.2,585.7l-102.5-51v-121.8l102.5-50.9,102.4,50.9v121.8l-102.5,51h0ZM544.2,530l95,47.3,95-47.3v-112.6l-94.9-47.1-95,47.1v112.6h0Z"/>
  <polygon class="st0" points="639.2 468.5 538.8 418.5 542.1 411.8 639.2 460.2 736.2 411.8 739.6 418.5 639.2 468.5 639.2 468.5"/>
  <polygon class="st0" points="635.2 464.1 642.7 464.1 642.7 581.5 635.2 581.5 635.2 464.1 635.2 464.1"/>
</svg>