<svg width="449" height="57" viewBox="0 0 449 57" fill="none" xmlns="http://www.w3.org/2000/svg">
<path d="M19 42.5004V51.8004H27.8V44.3004C27.8 43.3004 28.6 42.5004 29.6 42.5004H37.1V33.7004H27.8C22.9 33.7004 19 37.6004 19 42.5004ZM38.8 23.9004C37.8 23.9004 37 23.1003 37 22.1003V14.6003H28.2V23.9004C28.2 28.8004 32.1 32.7004 37 32.7004H46.3V23.9004H38.8ZM9.29999 24.4004H0V33.2004H7.5C8.5 33.2004 9.29999 34.0004 9.29999 35.0004V42.5004H18.1V33.2004C18.1 28.3004 14.2 24.4004 9.29999 24.4004ZM18.5 23.5004H9.20001V14.7004H16.7C17.7 14.7004 18.5 13.9004 18.5 12.9004V5.40039H27.3V14.7004C27.3 19.6004 23.4 23.5004 18.5 23.5004Z" fill="#F0529C"/>
<path d="M101.5 47.4008L91.2 5.30078H79.8L69.5 47.4008L60.3 5.30078H53L63.2 51.9008H75.5L85.4 11.1008L95.3 51.9008H107.6L117.8 5.30078H110.6L101.4 47.4008H101.5ZM123.1 51.8008H130.1V16.8008H123.1V51.8008ZM122.2 11.6008H131V5.30078H122.2V11.6008ZM137.6 51.8008H144.6V2.80078H137.6V51.8008ZM166.9 15.7008C155.6 15.7008 150.6 24.0008 150.6 34.3008C150.6 44.6008 155.6 52.9008 166.9 52.9008C178.2 52.9008 177.5 50.3008 179.8 45.8008V51.8008H186.8V2.80078H179.8V22.8008C177.4 18.2008 173.2 15.7008 166.9 15.7008ZM157.6 34.3008C157.6 25.6008 160.5 21.3008 168.3 21.3008C176.1 21.3008 179.8 25.4008 179.8 34.3008C179.8 43.2008 175.7 47.3008 168.3 47.3008C160.9 47.3008 157.6 43.0008 157.6 34.3008ZM194.8 51.8008H215C230.3 51.8008 236.9 41.1008 236.9 28.4008C236.9 15.7008 230.3 5.20081 215 5.20081H194.8V51.8008ZM202 46.0008V11.1008H213.6C225.1 11.1008 229.4 16.8008 229.4 28.5008C229.4 40.2008 225.2 46.1008 213.6 46.1008H202V46.0008ZM258.5 52.9008C270.8 52.9008 274.7 46.0008 275.3 41.2008H268.9C267.9 44.8008 265.1 47.7008 258.7 47.7008C252.3 47.7008 248.2 45.0008 247.6 36.2008H275.2C275.3 35.3008 275.3 34.4008 275.3 33.5008C275.3 23.5008 269.6 15.6008 258.4 15.6008C247.2 15.6008 240.7 23.9008 240.7 34.1008C240.7 44.3008 245.9 52.8008 258.4 52.8008L258.5 52.9008ZM247.8 31.2008C248.6 23.4008 252.6 20.9008 258.7 20.9008C264.8 20.9008 268.4 24.1008 268.8 31.2008H247.9H247.8ZM293.9 51.8008H300.8V46.2008H290.3V22.2008H301.5V16.8008H290.3V8.90082H286.8L283.9 16.0008L276.6 18.5008V22.1008H283.2V41.4008C283.2 48.4008 285.3 51.7008 293.8 51.7008L293.9 51.8008ZM311.6 36.8008H304C304.2 46.3008 310.5 53.0008 323 53.0008C335.5 53.0008 342.1 44.5008 342.1 37.0008C342.1 29.5008 334.8 24.0008 328.9 24.0008C323 24.0008 325.3 24.3008 324.3 24.6008L339.4 11.1008V5.30078H305.6V11.1008H330.9L313.3 26.2008L316.7 30.7008C319.2 28.9008 321.6 27.8008 325.3 27.8008C331.4 27.8008 334.5 31.4008 334.5 36.7008C334.5 42.0008 330.4 47.1008 323.2 47.1008C316 47.1008 311.7 43.4008 311.5 36.8008H311.6ZM348.3 51.8008H368.5C383.8 51.8008 390.4 41.1008 390.4 28.4008C390.4 15.7008 383.8 5.20081 368.5 5.20081H348.3V51.8008ZM355.5 46.0008V11.1008H367C378.6 11.1008 382.8 16.8008 382.8 28.5008C382.8 40.2008 378.6 46.1008 367 46.1008H355.5V46.0008Z" fill="#F0529C"/>
<path d="M423.013 57L397 44.0049V12.9696L423.013 0L449 12.9696V44.0049L422.987 57H423.013ZM398.903 42.8073L423.013 54.8596L447.122 42.8073V14.1162L423.038 2.11488L398.929 14.1162V42.8073H398.903Z" fill="#F0529C"/>
<path d="M423.5 27L398 14.6543L398.838 13L423.5 24.9506L448.136 13L449 14.6543L423.5 27Z" fill="#F0529C"/>
<path d="M422 26H424V56H422V26Z" fill="#F0529C"/>
</svg>
